<?xml version="1.0" encoding="utf-8"?>
<!-- Generator: Adobe Illustrator 21.0.0, SVG Export Plug-In . SVG Version: 6.00 Build 0)  -->
<svg version="1.1" id="Capa_1" xmlns="http://www.w3.org/2000/svg" xmlns:xlink="http://www.w3.org/1999/xlink" x="0px" y="0px"
	 viewBox="0 0 600 600" style="enable-background:new 0 0 600 600;" xml:space="preserve">
<style type="text/css">
	.st0{fill:none;stroke:#214291;stroke-width:4.706;stroke-miterlimit:10;}
	.st1{fill:none;stroke:#214291;stroke-width:4.2171;stroke-miterlimit:10;}
	.st2{fill:none;stroke:#214291;stroke-width:3.31;stroke-miterlimit:10;}
	.st3{fill:none;stroke:#214291;stroke-width:3.8065;stroke-miterlimit:10;}
	.st4{fill:#224192;}
	.st5{fill:#4D6DB3;}
</style>
<path class="st0" d="M98.3,297c0-25.5-9.1-46.3-20.4-46.3S57.5,271.4,57.5,297v48.1"/>
<path class="st0" d="M197.4,297.9c0-25.5,9.1-46.3,20.4-46.3c11.3,0,20.4,20.7,20.4,46.3v47.9"/>
<line class="st0" x1="56.5" y1="303.1" x2="240.3" y2="303.1"/>
<path class="st0" d="M125.9,319.4c0-6.7-5.2-12.1-11.7-12.1s-11.7,5.4-11.7,12.1v27.1"/>
<path class="st0" d="M132.8,347.9v-28.5c0-6.7,5.2-12.1,11.7-12.1c6.4,0,11.7,5.4,11.7,12.1v20.1"/>
<path class="st0" d="M161.9,331.6v-12.1c0-6.7,5.2-12.1,11.7-12.1c6.4,0,11.7,5.4,11.7,12.1v26.6"/>
<path class="st1" d="M131.7,233.5v-4c0-10.2,7.4-18.5,16.6-18.5s16.6,8.3,16.6,18.5l0.4,6.8"/>
<path class="st1" d="M194.2,232.8c0-8.9-6.5-16.1-14.5-16.1s-14.5,4.4-14.5,13.3"/>
<path class="st1" d="M131.4,232.8c0-8.9-6.5-16.1-14.5-16.1s-14.5,7.2-14.5,16.1v3.5"/>
<g>
	<polyline class="st1" points="100.3,227 100.3,177.7 100.1,147 	"/>
	<path class="st1" d="M100.1,147.9c-0.1-15.9,6.7-27.2,17.8-37c5.9-5.2,19.9-22.2,19.9-22.2s14,0.1,22.5,0"/>
</g>
<polyline class="st1" points="196.5,223.9 196.5,174.5 196.8,143.9 "/>
<path class="st1" d="M196.8,144.8c0.1-15.9-6.7-27.2-17.8-37c-5.9-5.2-14.2-12.3-19.2-18.6"/>
<path class="st1" d="M184.6,136.9c0.4-14.7-2.7-21.5-16.8-35.4"/>
<path class="st1" d="M170.6,137.2c0.1-15.9,3.1-21-11.9-38.3"/>
<path class="st1" d="M117.2,137.8c-0.4-14.7,2.7-21.5,16.8-35.4"/>
<path class="st1" d="M131.2,138.2c-0.1-15.9-3.1-21,11.9-38.3"/>
<path class="st1" d="M140.8,161.5V157v-6.3c0-3.8,2.9-7,6.4-7s6.4,3.1,6.4,7v6.3"/>
<path class="st1" d="M158.6,155.2v-4.5c0-3.8,2.9-7,6.4-7s6.4,3.1,6.4,7v7.7"/>
<path class="st1" d="M176.3,155.2v-4.5c0-3.8,2.9-7,6.4-7c3.6,0,6.4,3.1,6.4,7v7.7"/>
<path class="st1" d="M105.7,150.7c0-3.8,2.9-7,6.4-7c3.6,0,6.4,3.1,6.4,7l0.2,8.1"/>
<path class="st1" d="M123.5,161.5v-10.8c0-3.8,2.9-7,6.4-7c3.6,0,6.4,3.1,6.4,7v6.8"/>
<path class="st1" d="M149.9,136.9c0,0,1-23.1,0.6-28.9"/>
<path class="st0" d="M77.9,250.7c0,0-9.5,3.3-8.7,48.1"/>
<path class="st0" d="M77.9,251.4c0,0,9.5,3.3,8.7,48.1"/>
<path class="st0" d="M217.8,251.4c0,0-9.5,3.3-8.7,48.1"/>
<path class="st0" d="M217.8,252.1c0,0,9.5,3.3,8.7,48.1"/>
<line class="st0" x1="69.2" y1="305.9" x2="69.2" y2="345.8"/>
<line class="st0" x1="85.9" y1="307.3" x2="85.9" y2="343.7"/>
<line class="st0" x1="209.1" y1="307.3" x2="209.1" y2="347.2"/>
<line class="st0" x1="225.8" y1="308.7" x2="225.8" y2="345.1"/>
<line class="st0" x1="97" y1="310.1" x2="97" y2="347.2"/>
<line class="st0" x1="195.6" y1="306.6" x2="195.6" y2="344.4"/>
<line class="st0" x1="44.5" y1="347.2" x2="244.1" y2="347.2"/>
<line class="st0" x1="42.1" y1="357" x2="243.3" y2="357"/>
<line class="st0" x1="44.5" y1="364" x2="89.8" y2="364"/>
<polyline class="st0" points="54.9,371.8 54.9,384.4 79.5,384.4 79.5,377.4 "/>
<line class="st0" x1="194" y1="364.2" x2="239.3" y2="364.2"/>
<polyline class="st0" points="204.3,370.4 204.3,383 228.9,383 228.9,376 "/>
<line class="st0" x1="69.2" y1="383" x2="69.2" y2="468.5"/>
<line class="st0" x1="218.6" y1="384.4" x2="218.6" y2="472.7"/>
<path class="st1" d="M140.8,234.8c0-4.5,3.3-8.1,7.3-8.1c4.1,0,7.3,3.6,7.3,8.1"/>
<path class="st1" d="M173.4,234.8c0-4.5,3.3-8.1,7.3-8.1s7.3,3.6,7.3,8.1"/>
<path class="st1" d="M108.3,234.8c0-4.5,3.3-8.1,7.3-8.1c4.1,0,7.3,3.6,7.3,8.1"/>
<rect x="139" y="388.9" class="st2" width="8.7" height="13.3"/>
<rect x="112.2" y="388.9" class="st2" width="8.7" height="13.3"/>
<rect x="165.7" y="388.9" class="st2" width="8.7" height="13.3"/>
<rect x="110.5" y="256.5" class="st3" width="5.1" height="9"/>
<rect x="177.8" y="256.6" class="st3" width="5.1" height="9"/>
<rect x="155.4" y="256.5" class="st3" width="5.1" height="9"/>
<rect x="133" y="256.6" class="st3" width="5.1" height="9"/>
<rect x="110.1" y="281.7" class="st3" width="5.1" height="9"/>
<rect x="177.5" y="281.8" class="st3" width="5.1" height="9"/>
<rect x="155" y="281.8" class="st3" width="5.1" height="9"/>
<rect x="132.6" y="281.8" class="st3" width="5.1" height="9"/>
<rect x="85.4" y="388.9" class="st2" width="8.7" height="13.3"/>
<rect x="192.5" y="388.9" class="st2" width="8.7" height="13.3"/>
<rect x="138.5" y="415.1" class="st2" width="8.7" height="13.3"/>
<rect x="111.7" y="415.1" class="st2" width="8.7" height="13.3"/>
<rect x="165.2" y="415.1" class="st2" width="8.7" height="13.3"/>
<rect x="84.9" y="415.1" class="st2" width="8.7" height="13.3"/>
<rect x="192" y="415.1" class="st2" width="8.7" height="13.3"/>
<rect x="137.9" y="441.3" class="st2" width="8.7" height="13.3"/>
<rect x="111.2" y="441.3" class="st2" width="8.7" height="13.3"/>
<rect x="164.7" y="441.3" class="st2" width="8.7" height="13.3"/>
<rect x="84.4" y="441.3" class="st2" width="8.7" height="13.3"/>
<rect x="191.5" y="441.3" class="st2" width="8.7" height="13.3"/>
<line class="st1" x1="100.3" y1="177.7" x2="184.5" y2="177.7"/>
<polyline class="st1" points="99.4,262.5 99.4,235.5 197.3,235.5 197.3,252.6 "/>
<line class="st1" x1="194.4" y1="187.2" x2="129.5" y2="187.2"/>
<polyline class="st1" points="138.6,87.8 146.9,44.6 152.6,44.6 159.1,87.8 "/>
<line class="st1" x1="141.1" y1="74.9" x2="157.2" y2="74.7"/>
<line class="st1" x1="155.7" y1="66.2" x2="149.3" y2="66.4"/>
<path class="st4" d="M276.8,512.7l7.1-16h4.5v22H285v-17l-6.6,15.1h-3.3l-6.6-15.1v17h-3.4v-22h4.5L276.8,512.7z"/>
<path class="st4" d="M307.8,496.2c6.6,0,11.3,5,11.3,11.4c0,6.5-4.7,11.4-11.3,11.4c-6.6,0-11.3-4.9-11.3-11.4
	C296.5,501.2,301.3,496.2,307.8,496.2z M307.8,515.8c4.4,0,7.7-3.4,7.7-8.1c0-4.6-3.3-8.1-7.7-8.1c-4.4,0-7.7,3.5-7.7,8.1
	C300.1,512.3,303.4,515.8,307.8,515.8z"/>
<path class="st4" d="M327.3,496.7h3.5l10.8,16.3v-16.3h3.4v22h-3.5l-10.8-16.2v16.2h-3.5v-22H327.3z"/>
<path class="st4" d="M358.2,499.8h-5.5v-3.1h14.5v3.1h-5.5v18.8h-3.5V499.8z"/>
<path class="st4" d="M375.1,496.7H386v3.1h-7.4v6.1h6.4v3.1h-6.4v6.5h7.7v3.1h-11.2V496.7z"/>
<path class="st4" d="M401.1,518.6l-8.2-22h3.8l6.2,17.8l6.3-17.8h3.8l-8.2,22H401.1z"/>
<path class="st4" d="M420.4,496.7h3.5v22h-3.5V496.7z"/>
<path class="st4" d="M433.3,496.7h5.2c7.3,0,11.7,4.1,11.7,11c0,7.2-4.5,11-11.7,11h-5.2V496.7z M438.8,515.6c4.7,0,7.7-2.7,7.7-7.9
	c0-5.1-3-7.9-7.7-7.9h-2v15.8H438.8z"/>
<path class="st4" d="M458.3,496.7h10.9v3.1h-7.4v6.1h6.4v3.1h-6.4v6.5h7.7v3.1h-11.2V496.7z"/>
<path class="st4" d="M488.2,496.2c6.6,0,11.3,5,11.3,11.4c0,6.5-4.7,11.4-11.3,11.4c-6.6,0-11.3-4.9-11.3-11.4
	C476.9,501.2,481.7,496.2,488.2,496.2z M488.2,515.8c4.4,0,7.7-3.4,7.7-8.1c0-4.6-3.3-8.1-7.7-8.1c-4.4,0-7.7,3.5-7.7,8.1
	S483.8,515.8,488.2,515.8z"/>
<path class="st4" d="M519.4,517.4c0-6.2,10.1-9.8,10.1-14.6c0-1.9-1.3-3.3-3.4-3.3c-2.1,0-3.2,1.4-3.6,3l-3-0.9
	c0.4-2,2.2-5.3,6.8-5.3c4.2,0,6.8,2.6,6.8,6.4c0,6.2-9,9.4-9.5,12.9h9.8v3.1h-13.9L519.4,517.4L519.4,517.4z"/>
<path class="st4" d="M548.2,519c-5.5,0-7.3-4-7.3-11.4s1.8-11.4,7.3-11.4s7.3,4,7.3,11.4S553.7,519,548.2,519z M548.2,515.8
	c3.4,0,3.8-3.2,3.8-8.1s-0.4-8.1-3.8-8.1c-3.4,0-3.8,3.2-3.8,8.1S544.8,515.8,548.2,515.8z"/>
<path class="st4" d="M562.8,498.1l4-1.5h2.8v22h-3.5v-18.5l-2.4,0.9L562.8,498.1z"/>
<path class="st4" d="M579.3,517.5l1.4-2.8c0.7,0.5,1.8,1,3.4,1c4.1,0,5.1-3.8,5.1-6.6c-0.7,0.9-2.1,1.9-4.4,1.9
	c-4,0-6.5-2.8-6.5-7.2c0-4.6,2.8-7.7,7.2-7.7c5.8,0,7.4,4.3,7.4,9.8c0,7.3-2.1,13-8.5,13C581.9,519,580.2,518.1,579.3,517.5z
	 M581.8,503.8c0,2.4,1.3,4.1,3.7,4.1c1.7,0,3-1,3.9-2.4c0-3.2-0.4-6.1-4-6.1C583.2,499.5,581.8,501,581.8,503.8z"/>
<path class="st5" d="M307.8,189.6c20.8,0,36.4,13.1,36.4,39.6c0,23.2-11.9,40.5-36.4,40.5h-34.6v-80.2L307.8,189.6L307.8,189.6z
	 M306.6,255c10.2,0,20-6.3,20-24c0-16.2-5.7-26.5-23.1-26.5h-12.6V255H306.6z"/>
<path class="st5" d="M383.2,255h41.4v14.8h-58.5v-80.4h58.5v14.8h-41.4v18.1h36.6v15.6h-36.6V255z"/>
<path class="st5" d="M468.4,269.8l-26-80.2h18.2l17.9,56.4h0.2l18.1-56.4H515l-26.6,80.2H468.4z"/>
<path class="st5" d="M303.5,374.3c-22.9,0-41.4-18.5-41.4-41.4c0-23,18.5-41.5,41.4-41.5c22.8,0,41.5,18.5,41.5,41.5
	C345,355.8,326.2,374.3,303.5,374.3z M279,332.9c0,13.4,11.1,24.5,24.5,24.5s24.3-11.1,24.3-24.5s-10.9-24.6-24.3-24.6
	S279,319.5,279,332.9z"/>
<path class="st5" d="M405.2,294.2c20.1,0,27.7,12.7,27.7,25.7s-7.6,25.7-27.7,25.7h-18.5v28.7H369v-80.2L405.2,294.2L405.2,294.2z
	 M400.3,331.9c8.1,0,15.5-1.8,15.5-12s-7.4-12-15.5-12h-13.7v24H400.3z"/>
<path class="st5" d="M514.5,348.6c0,14.7-11.5,25.7-33.3,25.7c-17,0-32.3-7.9-34-25.4h17.1c1.9,10.2,11.2,11.7,17.6,11.7
	c6.2,0,15.6-1.8,15.6-10c0-17.1-47.7-6.1-47.7-36c0-16.5,15.5-24.3,30-24.3c15.9,0,30.5,6.5,32,23.1h-17c-2.2-9.1-10.3-9.4-15.8-9.4
	c-5.6,0-12.1,2.4-12.1,9.1c0,6,3.8,7.3,23.9,12.1C496.6,326.7,514.5,330.4,514.5,348.6z"/>
<path class="st5" d="M307.8,392.3c20.8,0,36.4,13.1,36.4,39.6c0,23.2-11.9,40.5-36.4,40.5h-34.6v-80.2L307.8,392.3L307.8,392.3z
	 M306.6,457.7c10.2,0,20-6.3,20-24c0-16.2-5.7-26.5-23.1-26.5h-12.6v50.5H306.6z"/>
<path class="st5" d="M388.1,392.3h17.7l35.8,80.1h-17.1l-7.9-17.7h-40.5l-8.4,17.7h-16.1L388.1,392.3z M383.8,438.4h26.6l-13-31
	h-0.1L383.8,438.4z"/>
<path class="st5" d="M440.9,392.3h19.9l18.7,31.7l18.6-31.7h19.6l-29.8,49.4v30.8h-17.6v-31.2L440.9,392.3z"/>
<path class="st5" d="M592.2,450.6c0,14.7-11.5,25.7-33.3,25.7c-17,0-32.3-7.9-34-25.4H542c1.9,10.2,11.2,11.7,17.6,11.7
	c6.2,0,15.6-1.8,15.6-10c0-17.1-47.7-6.1-47.7-36c0-16.5,15.5-24.3,30-24.3c15.9,0,30.5,6.5,32,23.1h-17c-2.2-9.1-10.3-9.4-15.8-9.4
	c-5.6,0-12.1,2.4-12.1,9.1c0,6,3.8,7.3,23.9,12.1C574.3,428.7,592.2,432.4,592.2,450.6z"/>
<path class="st5" d="M125.3,384.8L125.3,384.8L125.3,384.8L125.3,384.8z"/>
<path class="st5" d="M141.7,421.8c0.1,0,0.2-0.1,0.2-0.1c1.2,2,2.4,4,3.7,6c0-0.6-0.3-1.2-0.5-1.7c-1-2.4-3.1-4.2-3.9-6.8
	c-0.2-0.6-0.8-1.4-1.4-1.7c-1.3-0.7-2.7-1.1-4-1.6s-2.5-1.2-3.8-1.8c-0.3-0.1-0.7-0.5-0.6-0.6c0.2-0.6,0.4-1.2,0.8-1.7
	c0.2-0.3,0.8-0.4,1-0.7c1.5-2.2,2.9-4.4,4.5-6.7c-0.7-1.7-1.5-3.6-2.4-5.4c-0.2-0.4-0.8-0.9-1.3-1c-0.9-0.2-1.8-0.2-2.8-0.3
	c-2.2-0.2-4.4-0.4-6.7-0.6c-0.3,0-0.7-0.6-0.7-0.8c0.2-1.2,0.4-2.4,0.9-3.4c1-2.1,0.9-4.5,2.1-6.6c0.1-0.1-0.1-0.5-0.3-0.7
	c-1.5-1.6-3-3.2-4.6-4.8c-0.9,0.3-1.8,0.6-2.7,0.9c-0.8,0.2-1.6,0.3-2.4,0.5c-1.4,0.2-2.8,0.3-4.1,0.7c-1.4,0.4-1.8,0.2-1.8-1.2
	c0-2.1,0-4.2,0-6.3c0-0.6,0.1-1.3,0.1-1.9c0.1-1.3-0.4-2.1-1.7-2.6c-0.3-0.1-0.6-0.4-0.9-0.6c-1-0.6-2-1.1-3-1.6
	c-0.1,0.1-0.2,0.2-0.2,0.3c0.4,0.9,0.8,1.8,1.2,2.7c0.1,0.1,0.1,0.4,0.1,0.4c-0.7,0.5-0.1,1,0.1,1.5c0.3,0.7,0.6,1.3,0.8,1.9
	c0.1,0.2-0.1,0.6-0.2,0.8c-0.4-0.5-0.6-1.1-0.9-1.2c-0.4,0-0.8,0.3-1.2,0.5c0.3,0.6,0.6,1.2,1,1.9c-0.8,1.2,0.6,1.6,1.3,2.3
	c-0.4,0.2-0.7,0.3-1,0.5c-0.2-0.5-0.5-0.9-0.7-1.4c-0.3,0.2-0.7,0.3-0.9,0.5c-0.7,0.7-1.3,0.6-1.5-0.2c-0.2-0.7-0.2-1.7,0.2-2.2
	c0.5-0.7,0.2-0.9-0.3-1.3c-0.2-0.1-0.3-0.3-0.5-0.4c0.1,0,0.2-0.1,0.3-0.1c0-0.5,0.1-1,0-1.4c-0.3-1.1-1.4-2.1-0.7-3.4
	c0,0-0.1-0.2-0.2-0.2c-1.3,0.6-2.6,1.2-4,1.8c0.4,0.3,0.6,0.5,0.8,0.7c-1.7-0.3-2.8,0.5-4.2,1.7c-0.1-0.6-0.1-1-0.2-1.4
	c-0.4-1.2-0.7-2.5-1.5-3.3c-0.5-0.5-1-0.8-1.3-1.5c-0.4-0.7-0.9-1.3-1.4-2.1c0.5,0.1,1.2,0.2,1.9,0.3c-0.1-0.8,0.3-2-1.3-2
	c0.6-0.8,0.5-1-0.4-1.3c-0.4-0.2-0.9-0.3-1.3-0.4c-1-0.3-2.1-0.8-3.1-0.7c-1.3,0.2-2.6,0.9-3.6,1.7c-1,0.8-1.4,2.5-2.5,3.2
	c-1.6,1-1,2.2-0.9,3.5c-0.5,0.1-1.2,0.3-1.5,0.1c-0.7-0.6-1.7-0.7-1.9-1.9c-0.2-0.7-0.8-1.3-1.3-1.9c-1.4-1.8-2.9-3.6-4.4-5.6
	c-0.3,0-0.7,0-1.2,0.1c-1.5,0.2-3,0.6-4.6,0.6c-0.9,0-1.1,0.4-1.4,1.1c-0.4,1.1-0.6,2.4-1.3,3.3c-1.1,1.6-1.7,3.3-2.4,5.1
	c-0.4,1-0.8,0.8-1.5,0.4c-1-0.8-2-1.5-3-2.3c-0.4,0.3-0.7,0.6-1,0.8c0-0.4,0.1-0.8,0.1-1.3c-1.1-0.8-2.2-1.8-3.4-2.5
	c-0.5-0.3-1.3-0.3-1.8-0.1c-1,0.3-1.8,0.9-2.8,1.2c-1.7,0.7-3.3,1.4-2.7,3.8v0.1c-0.2,1.9-0.5,3.8-0.7,5.6c-0.1,1-0.3,1.9-0.5,2.8
	c-0.8-0.1-1.3,0-1.8-0.2c-0.9-0.3-1.7-0.8-2.6-1.1c-0.9-0.3-1.9-0.4-2.8-0.7c-1-0.3-1.9-0.8-2.8-1.1c-0.2-0.1-0.6,0.1-0.7,0.2
	c-1.4,1.2-2.7,2.3-4,3.5c-0.3,0.3-0.7,0.8-0.6,1.1c0.3,1.5,0.7,3,1.1,4.6c0,0.2,0.2,0.4,0.1,0.6c-0.3,1.7,0.3,3.2,0.9,4.7
	c0.3,0.6,0.2,1.1-0.6,1c-0.6,0-1.3-0.1-1.9-0.1c-1.3,0-2.6,0.1-4,0.2c-0.4,0-0.8,0.4-1.1,0.2c-0.9-0.6-1.8-0.1-2.7,0
	c-0.5,0.1-0.9-0.3-1.3,0.5c-0.5,1.1-1.3,2-2,3c-0.1,0.2-0.2,0.4-0.3,0.6c-0.2,0.5-0.5,1-0.8,1.8c0.9,1.6,1.9,3.4,2.8,5.2
	c0,0.1,0.1,0.2,0.1,0.2c1.6,1.2,1.5,3.2,2.6,4.8c-1.4,0.3-2.6,0.3-3.7,0.7c-2.2,0.8-4.3,1.7-6.5,2.5c-0.2,0.1-0.6,0.3-0.6,0.5
	c-0.4,1.8-0.7,3.5-1,5.3c-0.1,0.5-0.1,1.3,0.2,1.6c0.8,0.9,1.7,1.6,2.6,2.3c1.2,1.1,2.5,2.1,3.7,3.2c0.6,0.6,1,1.4,1.4,2
	c-3,2.3-5.9,4.4-8.7,6.6c0.1,0.9,0.3,1.9,0.4,3c0.1,1,0,2,0.1,2.9c0.1,0.5,0.4,1,0.8,1.3c0.9,0.6,1.9,1,2.8,1.4c2,0.9,4,1.8,6,2.6
	c0.9,0.4,0.7,0.9,0.3,1.4c-1.8,2.5-3.6,4.9-5.3,7.4c-0.3,0.4-0.4,1.2-0.2,1.6c0.8,2,1.7,3.9,2.5,5.6c3.8,0.4,7.4,0.9,11.1,1.3
	c-0.4,1.4-0.8,2.7-1.2,4c-0.3,1-0.7,2-1,3s-0.2,2.2-0.7,3c-0.6,0.9,0,1.2,0.4,1.7s0.9,1,1.3,1.5c0.5,0.6,0.9,1.2,1.4,1.7
	c0.4,0.4,0.9,0.6,1.4,1c3.5-0.7,7.1-1.4,10.9-2.1c0,1.3-0.1,2.5-0.1,3.7c0,1.9,0.3,3.9,0.2,5.7c-0.1,1.4,0.4,2.2,1.5,2.7
	c0.6,0.3,1,0.7,1.6,1c-0.1,0.2-0.2,0.3-0.1,0.2c0.5,1,1,1.9,1.4,2.8c0.1-0.3,0.2-0.6,0.2-0.9c-0.1-0.5-0.4-0.9-0.6-1.4
	c1.1,0.3,1.8,0.9,2.8,0.3c2.1-1.2,4.3-2.2,6.5-3.3c0.1-0.1,0.2-0.1,0.3-0.2c0.7-0.5,1.3-1,2.3-1.8c0.9,2.6,1.7,4.9,2.5,7.1
	c0.4,1.2,0.8,2.5,1.3,3.7c0.1,0.3,0.5,0.5,0.8,0.6c1.2,0.3,2.3,0.6,3.5,0.7c1,0.1,2.1,0.6,2.9-0.3c0.9-1,1.7-2.1,2.6-3
	s1.8-1.8,2.7-2.7c0.6-0.6,1-1.3,1.6-2c0.4,0.6,0.8,1.2,1.3,1.9c0.5,0.7,1,1.4,1.5,2.1c0.8,1,1.9,2,2.5,3.1c0.8,1.3,1.4,2,3.2,1.9
	c1.5,0,2.9-0.6,4.3-0.5c0.3,0,0.8-0.5,1-0.9c0.7-1.3,1.2-2.7,1.9-4c0.2-0.4,0.5-0.8,0.7-1.2c0.5-1.1,1.1-2.1,1.4-3.3
	c0.2-0.8,0.4-1.2,1-1.3c2.2,2.8,5.5,4,8.1,6.3c0.4-0.1,1,0,1.5-0.3c1.5-0.6,2.9-1.2,4.3-2c0.5-0.3,1-0.9,1.1-1.5c0.2-2,0.8-4,0.6-6
	c-0.1-0.8,0.2-1.7,0.2-2.5c0.1-1.5,0.1-1.5,1.7-0.9c0.1,0,0.2,0,0.2,0c2.5,0.8,5,1.6,7.5,2.3c0.9,0.3,1.7,0.3,2.4-0.3
	c1.1-1,2.1-2.1,3.2-3.1c1-0.9,1.2-1.8,0.7-3.1c-0.4-1.4-0.6-2.8-0.9-4.2c-0.1-0.3-0.1-0.6-0.1-0.9c-0.3-1.2-0.7-2.3-1.1-3.7
	c2-0.1,3.8-0.2,5.7-0.3c2.2-1.7,4.6-2.8,7.4-3.1c0.1-0.1,0.1-0.2,0.2-0.2c0.6-0.8,1.3-1.7,1.3-2.7c0.1-0.8-0.5-1.9-1.1-2.5
	c-0.9-1-1.5-2.2-2.2-3.3c-0.5-0.8-0.9-1.7-1.3-2.6c-0.3-0.5-0.6-0.8-1.2-1.6c1.5-0.4,2.6-0.5,3.6-0.9c2.3-0.9,4.5-2,6.8-2.8
	c0.9-0.3,1.3-1.3,1.2-1.7c-0.1-1.5,0.6-2.7,0.7-4.1c0.1-1.1-0.4-1.9-1.3-2.4c-1.2-0.6-1.6-2-3-2.5c-0.8-0.3-1.3-1.2-2-1.8
	c0,0.1-0.1,0.3-0.1,0.4c-0.4,0.2-0.7,0.4-1.1,0.5l-0.3-0.3c0.4-0.4,0.7-0.7,1.2-1.1c-0.4-0.5-0.9-1.1-1.4-1.6
	c2.9-2.3,5.8-4.6,8.8-6.9C142,424.2,141.9,423,141.7,421.8z M125.8,432.3c0.1,1.2-0.2,2.5-0.4,3.7c-0.4,2.1-0.7,4.3-1.2,6.4
	c-0.2,1-0.7,1.9-1,2.8c-0.1,0.2,0,0.4,0,0.6c0.2-0.1,0.5-0.1,0.7-0.2c0.1-0.1,0-0.4,0-0.7c0.2,0.2,0.5,0.4,0.6,0.6
	c0.1,0.1,0.1,0.4,0.1,0.6c0,0.1-0.2,0.1-0.3,0.1c-0.6,0.2-1.2,0.3-1.7,0.6c-6.3,16.7-18.1,27.4-35.1,32.4c0-0.2-0.1-0.4-0.1-0.7
	c-2,1.7-4.3,1.8-6.7,2.1c-1.2,0.2-2.4,0.2-3.6,0.4c-0.9,0.1-1.5-0.2-1.9-1.1c-0.4-1.2-0.9-2.3-1.4-3.5c-0.1-0.3-0.3-0.5-0.5-0.7
	c-0.1,0.1-0.2,0.1-0.4,0.2c0.3,0.6,0.6,1.3,0.9,1.9c0.2,0.4,0.5,0.8,0.6,1.2c0.2,0.5,0.2,1.1,0.3,1.6c-0.5,0-1,0-1.5-0.1
	c-1.3,0-2.5-0.1-3.8-0.1c-0.6,0-1.2-0.2-1.8-0.3c0-0.1,0-0.3,0.1-0.5c-0.1,0-0.2-0.1-0.3-0.1c-1.6,0.8-2.9-0.2-4.3-0.5
	c-0.6-0.2-1.2-0.3-2.1-0.5c-0.2-0.6-2.2-1.4-3.3-1.1c-0.6,0.2-1,0.2-1.5-0.4c-0.4-0.5-1.2-0.6-1.9-0.8c-2.8-0.9-5.2-2.3-7.6-4.1
	c-1.4-1.1-3.2-1.7-4.4-3c-1.4-1.5-3.4-2.4-4.4-4.4c-0.3-0.6-1-0.9-1.5-1.3c-0.9-0.7-1.2-2-2.3-2.6c-0.8-0.5-1.1-1.6-1.6-2.5
	c-0.5-0.8-1.2-1.5-1.7-2.3c-0.2-0.3-0.4-0.6-0.5-0.9c-0.5-1.1-1-2.3-1.5-3.4c-0.4-0.7-1-1.3-1.3-2.1c-0.3-0.7-0.3-1.5-0.5-2.2
	c-0.3-0.9-0.9-1.8-1.2-2.7c-0.3-0.7-0.4-1.5-0.6-2.3c-0.4-1.5-1-3-1.2-4.6c-0.2-1.7-0.1-3.5-0.3-5.2c-0.1-1.1-0.4-2.1-0.4-3.2
	c0-1.8,0-3.6,0.2-5.3c0.2-1.9,0.5-3.8,0.9-5.7c0.2-1.1,0.4-2.3,0.7-3.4c0.4-1.5,1.1-2.9,1.6-4.3c0.3-0.9,0.5-1.9,0.8-2.8
	c0.1-0.4,0.5-0.8,0.7-1.2c1-1.9,1.9-3.9,3.1-5.7c1-1.6,2.3-3,3.4-4.5c0.7-1,1.3-2,2.1-3c0.8-0.9,1.8-1.7,2.6-2.6
	c0.5-0.5,1.5-0.7,1.4-1.8c0,0,0.3,0,0.4-0.1c1.5-1.1,3-2.3,4.5-3.5c0.1-0.1,0.2-0.2,0.3-0.2c1.6-0.9,3.1-1.8,4.8-2.6
	c2.5-1.2,4.9-2.6,7.5-3.4c1.8-0.5,3.6-1.6,5.7-1.5c0.9,0.1,1.9-0.5,2.9-0.8c0.2-0.1,0.5-0.1,0.8-0.2c1.1-0.1,2.1-0.3,3.2-0.4
	c0.3,0,0.7,0.1,1,0.1c0.5,0,1.2,0.2,1.6-0.1c1.3-0.9,2.5,0.2,3.8,0.1c0.9,0,1.8,0,2.8,0.1c0.6,0,1.3,0.1,1.9,0.2
	c1.4,0.3,2.7,0.6,4.1,0.9c0.4,0.1,0.9,0.2,1.3,0.3c1.1,0.3,2.3,0.6,3.4,1c1.6,0.6,3.2,1.1,4.7,2c0.3,0.2,1,0,1.4,0
	c0-0.1,0-0.3,0.1-0.4c-0.5-0.3-1-0.5-1.6-0.8c0.1-0.1,0.1-0.1,0.2-0.2c-0.4-0.6-0.7-1.3-1.3-1.6c-0.4-0.2-1.1,0.1-1.9,0.2
	c-0.2-0.3,0.2-0.9,1.6-1.7c-0.2-0.6-0.8-1.4-0.6-1.8c0.6-1.2-0.2-2.1-0.5-3.1c0.2-0.2,0.5-0.4,0.8-0.8c0.3,1.4,0.6,2.7,0.9,4
	c0.2,0.9,0.8,1.8,1.1,2.6c0.4,1.2,1.4,2.1,1.7,3.4c0.1,0.2-0.1,0.5-0.1,0.7c1.4,0.8,2.8,1.7,4.2,2.5c0.3,0.2,0.6,0.4,1,0.5
	c0-0.3,0-0.7,0-1s0.1-0.5,0.3-1.1c0.2,0.6,0.4,0.9,0.4,1.2c0,1.5,0.3,1.9,1.8,2.4c0.4,0.1,0.6,0.6,1,0.8c1.1,0.6,1.9,1.5,2.9,2.6
	c0-0.4,0-0.9,0-1.3c0.1,0,0.2-0.1,0.3-0.1c0.1,0.4,0.2,0.8,0.3,1.2c0.1,0.4,0.2,0.9,0.3,1.4c0.7-0.6,1.3-1.1,2-1.8
	c0,0.8,0,1.2,0,1.8c-0.3,0-0.6,0.1-1,0.1c0.2,0.5,0.3,1,0.6,1.4c1.2,1.3,2.5,2.6,3.7,4c0.2,0.2,0.4,0.4,0.4,0.7
	c0.3,0.8,0.8,1.3,1.7,1.1c-0.6,0.8-0.2,1.9,0.6,2.2c0.3,0.1,0.6,0.4,0.7,0.7c0.8,1.7,1.5,3.5,2.3,5.2c0.4,1,0.8,2,1.3,3
	c0.2,0.5,0.6,0.8,1,1.2c0.1-0.1,0.3-0.1,0.4-0.2c-0.1-0.5-0.2-1-0.2-1.4c-0.1-0.1-0.1-0.2-0.2-0.3c0-0.1,0.1-0.1,0.1-0.2
	c0,0.2,0.1,0.4,0.1,0.5c0.2,0.4,0.4,0.8,0.6,1.1c0.1-0.4,0.2-0.9,0.4-1.3c0,0.5,0,0.9,0,1.4s0,0.9,0.1,1.4c-0.3,0-0.7,0-1.1,0
	c0.4,1.6,0.9,3.3,1.3,5c0.3,1.2,0.4,2.5,0.7,3.7c0.2,0.9,0.4,1.7,0.5,2.6c0.1,0.8,0.1,1.5,0.1,2.3c0,0.6-0.1,1.2,0,1.7
	c0.1,0.3,0.5,0.5,1,0.6c0.1,0.5,0.1,0.9,0.2,1.4C125.7,430,125.6,430.6,125.8,432.3z"/>
<path class="st5" d="M218.8,512.9c0.1-0.3-0.2-1.1-0.5-1.3c-1.3-0.8-2.6-1.4-4-2.1c-0.5-0.2-1-0.3-1.4-0.6c-0.3-0.2-0.6-0.5-0.5-0.8
	c0-0.5,0.2-1,0.4-1.5c0.4-0.8,0.3-1.4,0.1-2.3c-0.3-1.6,1.2-3,2.8-3.3c0.9-0.2,2.1,0.1,2.7-1c0.1-0.1,0.5,0,0.7,0
	c1.6-1.8,1.1-4,1.1-6.3c-0.6,0.1-1.2,0.2-1.8,0.3c-0.7-0.6-1.4-1.2-2.2-1.9c0-0.1,0-0.2,0-0.4c0.4,0,1.1-0.1,1.2,0.1
	c0.5,0.9,1.1,0.6,1.7,0.3c0.1,0.3,0.2,0.6,0.3,0.9l0.4-0.1c0-0.3,0-0.6-0.1-0.9c-0.6-1.3-1.1-2.6-2.2-3.4c-0.5-0.4-1.4-0.3-2.1-0.4
	c-1-0.1-2.1-0.1-3.1-0.1c-0.4,0-0.7,0.2-1.2,0.3c-0.3-0.8-0.5-1.7-0.8-2.5c-0.4-0.9-0.7-1.9-1.2-2.7c-0.7-1.1-0.2-1.7,0.6-2.4
	c1-0.9,2.1-1.6,3-2.6c0.4-0.5,0.4-1.4,0.5-2.1c0-0.1-0.2-0.2-0.2-0.3c0.1-1.5-0.6-2.8-1.4-4c-1-1.5-2.3-2.8-4-3.6
	c-1-0.5-2,0-2.9,0.4c-1.1,0.4-2.1,1.2-3.3,1.6c-1,0.4-1.5-0.7-2.1-1.2c-1.2-1-2.2-2-3.5-3.3c0.6-1.4,1.2-3.1,1.9-4.8
	c0.5-1.3,0.2-2.1-0.9-2.9c-0.4-0.3-0.6-1-1-1.2c-1.6-0.8-3.2-1.6-4.9-2.3c-0.8-0.3-1.8-0.6-2.6-0.6c-0.6,0.1-1.1,0.8-1.6,1.3
	c-0.8,0.8-1.5,1.7-2.2,2.6c-0.2,0.3-0.5,0.6-0.7,0.9c-1.7-0.5-3.3-0.9-5-1.4c-0.1,0-0.1-0.1-0.2-0.1c-1.5-0.4-1.9-1.1-1.6-2.7
	c0-0.2,0-0.4,0-0.5c-0.1-0.8-0.1-1.7-0.2-2.5c-0.1-1-0.8-1.5-1.6-1.9c-2.3-1.2-4.8-1.4-7.3-1c-0.7,0.1-1.4,0.4-2.2,0.6
	c-0.2,0.1-0.4,0.3-0.5,0.4c-0.4,1.2-0.6,2.5-1,3.7c-0.3,0.8-0.6,1.6-1,2.4c-2,0.4-4.1,0.8-6.2,1c-0.4,0-1-0.7-1.3-1.2
	c-0.6-1-1.1-2.1-1.7-3.1c-0.9-1.4-2.3-1.4-3.7-1.4c-1,0-2,0.1-2.9,0.4s-1.8,1-2.6,1.6c-0.4,0.2-0.6,0.6-1,0.8
	c-1.1,0.6-1.5,1.4-1.2,2.6c0.3,1.6,0.6,3.2,0.8,4.9c0,0.3-0.2,0.6-0.5,0.8c-1.5,1.1-3.1,2.2-5,3.5c-0.9-0.6-2.3-1.2-3.3-2.3
	c-1.5-1.5-3.9-1.6-5.2,0.1c-0.1,0.1-0.2,0.3-0.3,0.3c-1.3,0.7-1.3,0.7-1.8,1.8c-0.1,0-0.2,0-0.3,0c-1.1,1.7-1.8,3.6-2,5.6
	c0.2,0.2,0.4,0.4,0.6,0.7c1,1.4,2.1,2.7,3.1,3.9c-1.2,1.8-2.5,3.6-3.7,5.4c-0.8,0-1.8,0.2-2.8,0.1c-0.7,0-1.4-0.3-2.1-0.5
	c-0.8-0.3-1.4-0.4-2.2,0.5c-1.2,1.3-2,2.8-2.6,4.3s-1,3.1-0.5,4.7c0.2,0.8,0.9,1.7,1.7,2.2c1,0.6,2.2,1,3.3,1.2
	c1.1,0.3,1.1,1,1.1,1.8c-0.1,1.5-0.6,3.1-0.5,4.6c0.1,1.4-0.7,1.4-1.6,1.8c0.5,0.3,1,0.5,1.6,0.8c-0.6,0.2-1,0.4-1.4,0.5
	c-0.3,0-0.7-0.1-0.8-0.2c-0.3-0.2-0.4-0.9-0.5-0.9c-0.9,0.2-1.9,0.4-2.6,0.9c-1.5,1.1-1.7,2.8-1.7,4.5c0,1.1,0.3,2.3,0.6,3.4
	c0.3,1,0.7,2,1.2,2.9c0.2,0.3,0.5,0.7,0.9,0.8c0.9,0.3,1.8,0.8,2.7,0c0.1-0.1,0.5,0.2,0.7,0.2c0.7,0.1,1.4,0.3,2.1,0.2
	c1.1-0.2,1.3,0.6,1.6,1.3c0.6,1.5,1.1,3.1,1.6,4.6c0.1,0.2,0.1,0.7-0.1,0.8c-1.2,1.2-2.7,2.2-3.6,3.6c-0.5,0.8-0.4,2.2-0.2,3.3
	c0.2,1,0.8,2,1.3,3c0.2,0.4,0.7,0.7,1.1,1.1c1.2,1,2.3,2.1,3.9,2.4c0.4,0.1,0.8-0.1,1.2-0.2c1.3-0.6,2.5-1.1,3.7-1.9
	c1.2-0.7,1.5,0.5,2.1,0.8c1.2,0.8,2.3,1.8,3.3,2.8c0.3,0.3,0.4,0.9,0.3,1.3c-0.1,0.5-0.3,0.9-0.5,1.4c0.1,0.1,0.2,0.2,0.2,0.3
	c0.3-0.2,0.7-0.5,1.1-0.8c-0.2,0.5-0.4,0.9-0.6,1.4c-0.3-0.1-0.6-0.1-1-0.2c-0.4,1-1.3,2.1-1.1,3.1c0.2,1.7,1.5,2.9,3,3.9
	c0.2-0.4,0.3-0.7,0.6-1.3c0.4,0.5,0.7,0.9,1.1,1.2c-0.1,0.1-0.2,0.2-0.2,0.3c0.3,0,0.7,0,1.1,0c-0.2,0.3-0.4,0.6-0.6,1
	c1.6,0.3,3.2,0.7,4.7,0.9c0.2,0,0.7-0.1,0.8-0.4c0.5-0.7,0.8-1.6,1.4-2.1c0.8-0.6,1.4-1.3,1.8-2.2c0.1-0.2,0.7-0.3,1.1-0.2
	c1.6,0.4,3.2,1,4.8,1.5c1,0.3,1.5,1,1.4,2c0,1,0,2,0.1,3.1c0,1.2,0.7,2,1.8,2.5c1.9,0.8,3.8,1.3,5.9,1.5c0.1,0,0.2,0.1,0.2,0.1
	c0.8-1,2-0.2,3-0.8c0.9-0.6,1.8-2.2,1.7-3.3c0-0.3,0.1-0.6,0.1-0.9c0.3-0.9,0.6-1.9,0.8-2.7c2.2-0.3,4.4-0.6,6.9-0.9
	c0.5,0.9,1.3,2.2,2,3.4c0.4,0.6,0.7,1.4,1.2,1.8c0.5,0.3,1.3,0.2,1.9,0.4c1.5,0.3,3-0.3,4.4-0.6c0.8-0.2,1.5-0.8,2.2-1.3
	c0.6-0.5,1.1-1,1.7-1.6c0.8-0.8,0.8-1.9,0.3-2.9c-0.3-0.7-0.3-1.6-0.5-2.5c-0.1-0.6-0.3-1.3-0.4-1.9c1.9-1.3,3.9-2.6,5.9-3.9
	c2,0.9,3.2,3,5.5,3.3c0.9,0.1,2-0.4,2.8-0.9c1.2-0.9,2.4-1.9,3.2-3.1c0.8-1.2,1.3-2.7,1.8-4.1c0.1-0.2-0.2-0.6-0.4-0.8
	c-1.1-1.3-2.3-2.6-3.5-3.9c-0.7-0.8,0.3-1.2,0.5-1.8c0.1-0.2,0.4-0.3,0.5-0.6c0.7-1.3,1.3-2.6,2-3.9c1.3,0.1,2.7,0.2,4.2,0.3
	c-0.3,0.4-0.4,0.6-0.5,0.8c1.5-0.4,3-0.7,4.3-1.1c0.2-0.5,0.4-0.9,0.6-1.3c0.1-0.2,0.3-0.5,0.4-0.7c0.4-1,0.9-2.1,1.2-3.1
	c0.1-0.3,0-0.7,0.1-1c0.1-0.4,0.3-0.8,0.5-1.2l0,0C218.9,514.2,218.5,513.7,218.8,512.9z M194,504.3c-0.1,1.3,0.1,2.8-0.3,4
	c-1.3,3.5-1.9,7.3-4.7,10.2c-1.1,1.2-1.8,2.8-2.8,4.2c-0.1,0.1-0.3,0.2-0.4,0.3c-0.4,0.2-0.8,0.4-1.1,0.6c-1.6,1.1-3.1,2.2-4.7,3.3
	c-0.6,0.5-1.3,1-2,1.3c-1.7,0.6-3.5,0.9-5.2,1.6c-2.2,0.9-4.6,0.8-6.9,1c-0.9,0.1-1.7-0.1-2.6-0.2c-1.5-0.2-3-0.1-4.4-0.5
	c-2-0.7-4-1.2-5.9-2.4c-1.3-0.8-2.5-1.7-3.7-2.7c-0.6-0.5-1.2-1.1-1.9-1.5c-1.4-0.8-2.2-2.1-3.2-3.3c-0.7-0.9-1.4-1.8-2-2.8
	c-0.8-1.3-1.5-2.5-2.1-3.9c-0.5-1-0.8-2.1-1.2-3.2c-0.1,0-0.2,0.1-0.3,0.1c0,0.5,0,0.9,0.1,1.5c-0.5-0.2-1-0.4-1.6-0.5
	c1-0.9,1.7-3.4,1.3-4.7c-0.2-0.6-0.7-1.2-0.7-1.8c0-1.2,0.2-2.4,0.4-3.6c0.1-0.8-0.4-1.4-1-1.2c-1.3,0.4-1.1-0.4-0.9-1.2
	c-0.9-0.1-1.7-0.2-2.5-0.3c-0.7,1.2-1,1.3-2,0.6c0.3-0.5,0.7-0.9,0.9-1.3c0.5,0,1,0.2,1.2,0c0.8-0.7,1.5-0.2,2.2,0
	c0.4,0.1,0.8,0.3,1.1,0.4c0.6-1.1,1.3-2.1,1.7-3.1c0.7-1.7,1.2-3.4,1.7-5.1c0.1-0.4,0.2-0.8,0.4-1.1c0.8-1.1,1.7-2.1,2.3-3.3
	c0.7-1.3,1.7-2.3,2.8-3.3s2.2-2.1,3.4-3c0.8-0.6,1.9-0.9,2.6-1.6c1.7-1.8,4-2.1,6.1-2.9c1.7-0.6,3.6-0.7,5.5-0.9
	c0.8-0.1,1.6-0.1,2.4-0.1c0.5,0,1.1,0,1.6,0.1c1.1,0.2,2.1,0.5,3.2,0.8c0.8,0.2,1.6,0.4,2.3,0.3c1.6-0.3,2.8,0.5,4,1.1
	c1.5,0.7,2.7,2,4.2,2.6c1.6,0.7,2.6,2,3.9,3c0.9,0.8,1.8,1.7,2.5,2.7c0.9,1.3,1.8,2.6,2.5,4.1s1.3,3,1.9,4.5
	c0.4,0.9,0.9,1.7,1.1,2.6c0.4,2.3,0.6,4.7,0.8,7C194.3,503.2,194.1,503.8,194,504.3z"/>
</svg>
