<?xml version="1.0" encoding="utf-8"?>
<!-- Generator: Adobe Illustrator 21.0.0, SVG Export Plug-In . SVG Version: 6.00 Build 0)  -->
<svg version="1.1" id="Capa_1" xmlns="http://www.w3.org/2000/svg" xmlns:xlink="http://www.w3.org/1999/xlink" x="0px" y="0px"
	 viewBox="0 0 600 600" style="enable-background:new 0 0 600 600;" xml:space="preserve">
<style type="text/css">
	.st0{fill:none;stroke:#214291;stroke-width:4.706;stroke-miterlimit:10;}
	.st1{fill:none;stroke:#214291;stroke-width:4.2171;stroke-miterlimit:10;}
	.st2{fill:none;stroke:#214291;stroke-width:3.31;stroke-miterlimit:10;}
	.st3{fill:none;stroke:#214291;stroke-width:3.8065;stroke-miterlimit:10;}
	.st4{fill:#224192;}
	.st5{fill:#4D6DB3;}
	.st6{fill:none;stroke:#FFFFFF;stroke-width:4.706;stroke-miterlimit:10;}
	.st7{fill:none;stroke:#FFFFFF;stroke-width:4.2171;stroke-miterlimit:10;}
	.st8{fill:none;stroke:#FFFFFF;stroke-width:3.31;stroke-miterlimit:10;}
	.st9{fill:none;stroke:#FFFFFF;stroke-width:3.8065;stroke-miterlimit:10;}
	.st10{fill:#FFFFFF;}
	.st11{fill:none;stroke:#000000;stroke-width:4.706;stroke-miterlimit:10;}
	.st12{fill:none;stroke:#000000;stroke-width:4.2171;stroke-miterlimit:10;}
	.st13{fill:none;stroke:#000000;stroke-width:3.31;stroke-miterlimit:10;}
	.st14{fill:none;stroke:#000000;stroke-width:3.8065;stroke-miterlimit:10;}
</style>
<path class="st11" d="M98.4,297.3c0-25.5-9.1-46.3-20.4-46.3s-20.4,20.7-20.4,46.3v48.1"/>
<path class="st11" d="M197.5,298.2c0-25.5,9.1-46.3,20.4-46.3c11.3,0,20.4,20.7,20.4,46.3v47.9"/>
<line class="st11" x1="56.6" y1="303.4" x2="240.4" y2="303.4"/>
<path class="st11" d="M128.1,319.7c0-6.7-5.2-12.1-11.7-12.1s-11.7,5.4-11.7,12.1v27.1"/>
<path class="st11" d="M132.9,348.2v-28.5c0-6.7,5.2-12.1,11.7-12.1c6.4,0,11.7,5.4,11.7,12.1v20.1"/>
<path class="st11" d="M162,331.9v-12.1c0-6.7,5.2-12.1,11.7-12.1c6.4,0,11.7,5.4,11.7,12.1v26.6"/>
<path class="st12" d="M131.8,233.8v-4c0-10.2,7.4-18.5,16.6-18.5s16.6,8.3,16.6,18.5l0.4,6.8"/>
<path class="st12" d="M194.3,233.1c0-8.9-6.5-16.1-14.5-16.1s-14.5,4.4-14.5,13.3"/>
<path class="st12" d="M131.5,233.1c0-8.9-6.5-16.1-14.5-16.1s-14.5,7.2-14.5,16.1v3.5"/>
<g>
	<polyline class="st12" points="100.4,227.3 100.4,178 100.2,147.3 	"/>
	<path class="st12" d="M100.2,148.2c-0.1-15.9,6.7-27.2,17.8-37c5.9-5.2,19.9-22.2,19.9-22.2s14,0.1,22.5,0"/>
</g>
<polyline class="st12" points="196.6,224.2 196.6,174.8 196.9,144.2 "/>
<path class="st12" d="M196.9,145.1c0.1-15.9-6.7-27.2-17.8-37c-5.9-5.2-14.2-12.3-19.2-18.6"/>
<path class="st12" d="M184.7,137.2c0.4-14.7-2.7-21.5-16.8-35.4"/>
<path class="st12" d="M170.7,137.5c0.1-15.9,3.1-21-11.9-38.3"/>
<path class="st12" d="M117.3,138.1c-0.4-14.7,2.7-21.5,16.8-35.4"/>
<path class="st12" d="M131.3,138.5c-0.1-15.9-3.1-21,11.9-38.3"/>
<path class="st12" d="M140.9,161.8v-4.5V151c0-3.8,2.9-7,6.4-7s6.4,3.1,6.4,7v6.3"/>
<path class="st12" d="M158.7,155.5V151c0-3.8,2.9-7,6.4-7s6.4,3.1,6.4,7v7.7"/>
<path class="st12" d="M176.4,155.5V151c0-3.8,2.9-7,6.4-7c3.6,0,6.4,3.1,6.4,7v7.7"/>
<path class="st12" d="M105.8,151c0-3.8,2.9-7,6.4-7c3.6,0,6.4,3.1,6.4,7l0.2,8.1"/>
<path class="st12" d="M123.6,161.8V151c0-3.8,2.9-7,6.4-7c3.6,0,6.4,3.1,6.4,7v6.8"/>
<path class="st12" d="M150,137.2c0,0,1-23.1,0.6-28.9"/>
<path class="st11" d="M78,251c0,0-9.5,3.3-8.7,48.1"/>
<path class="st11" d="M78,251.7c0,0,9.5,3.3,8.7,48.1"/>
<path class="st11" d="M217.9,251.7c0,0-9.5,3.3-8.7,48.1"/>
<path class="st11" d="M217.9,252.4c0,0,9.5,3.3,8.7,48.1"/>
<line class="st11" x1="69.3" y1="306.2" x2="69.3" y2="346.1"/>
<line class="st11" x1="86" y1="307.6" x2="86" y2="344"/>
<line class="st11" x1="209.2" y1="307.6" x2="209.2" y2="347.5"/>
<line class="st11" x1="225.9" y1="309" x2="225.9" y2="345.4"/>
<line class="st11" x1="97.1" y1="310.4" x2="97.1" y2="347.5"/>
<line class="st11" x1="195.7" y1="306.9" x2="195.7" y2="344.7"/>
<line class="st6" x1="44.6" y1="347.5" x2="244.2" y2="347.5"/>
<line class="st11" x1="42.2" y1="357.3" x2="243.4" y2="357.3"/>
<line class="st11" x1="44.6" y1="364.3" x2="89.9" y2="364.3"/>
<polyline class="st11" points="55,372.1 55,384.7 79.6,384.7 79.6,377.7 "/>
<line class="st11" x1="194.1" y1="364.5" x2="239.4" y2="364.5"/>
<polyline class="st11" points="204.4,370.7 204.4,383.3 229,383.3 229,376.3 "/>
<line class="st11" x1="69.3" y1="383.3" x2="69.3" y2="468.8"/>
<line class="st11" x1="218.7" y1="384.7" x2="218.7" y2="473"/>
<path class="st12" d="M140.9,235.1c0-4.5,3.3-8.1,7.3-8.1c4.1,0,7.3,3.6,7.3,8.1"/>
<path class="st12" d="M173.5,235.1c0-4.5,3.3-8.1,7.3-8.1s7.3,3.6,7.3,8.1"/>
<path class="st12" d="M108.4,235.1c0-4.5,3.3-8.1,7.3-8.1c4.1,0,7.3,3.6,7.3,8.1"/>
<rect x="139.1" y="389.2" class="st13" width="8.7" height="13.3"/>
<rect x="112.3" y="389.2" class="st13" width="8.7" height="13.3"/>
<rect x="165.8" y="389.2" class="st13" width="8.7" height="13.3"/>
<rect x="110.7" y="256.8" class="st14" width="5.1" height="9"/>
<rect x="178" y="256.9" class="st14" width="5.1" height="9"/>
<rect x="155.5" y="256.8" class="st14" width="5.1" height="9"/>
<rect x="133.1" y="256.9" class="st14" width="5.1" height="9"/>
<rect x="110.3" y="282" class="st14" width="5.1" height="9"/>
<rect x="177.6" y="282.1" class="st14" width="5.1" height="9"/>
<rect x="155.2" y="282.1" class="st14" width="5.1" height="9"/>
<rect x="132.7" y="282.1" class="st14" width="5.1" height="9"/>
<rect x="85.5" y="389.2" class="st13" width="8.7" height="13.3"/>
<rect x="192.6" y="389.2" class="st13" width="8.7" height="13.3"/>
<rect x="138.6" y="415.4" class="st13" width="8.7" height="13.3"/>
<rect x="111.8" y="415.4" class="st13" width="8.7" height="13.3"/>
<rect x="165.3" y="415.4" class="st13" width="8.7" height="13.3"/>
<rect x="85" y="415.4" class="st13" width="8.7" height="13.3"/>
<rect x="192.1" y="415.4" class="st13" width="8.7" height="13.3"/>
<rect x="138" y="441.6" class="st13" width="8.7" height="13.3"/>
<rect x="111.3" y="441.6" class="st13" width="8.7" height="13.3"/>
<rect x="164.8" y="441.6" class="st13" width="8.7" height="13.3"/>
<rect x="84.5" y="441.6" class="st13" width="8.7" height="13.3"/>
<rect x="191.6" y="441.6" class="st13" width="8.7" height="13.3"/>
<line class="st12" x1="100.4" y1="178" x2="184.6" y2="178"/>
<polyline class="st12" points="99.5,262.8 99.5,235.8 197.4,235.8 197.4,252.9 "/>
<line class="st12" x1="194.5" y1="187.5" x2="129.6" y2="187.5"/>
<polyline class="st12" points="138.7,88.1 147,44.9 152.7,44.9 159.2,88.1 "/>
<line class="st12" x1="141.2" y1="75.2" x2="157.3" y2="75"/>
<line class="st12" x1="155.8" y1="66.5" x2="149.4" y2="66.7"/>
<g>
	<path d="M276.9,513l7.1-16h4.5v22h-3.4v-17l-6.6,15.1h-3.3l-6.6-15.1v17h-3.4v-22h4.5L276.9,513z"/>
	<path d="M307.9,496.5c6.6,0,11.3,5,11.3,11.4c0,6.5-4.7,11.4-11.3,11.4c-6.6,0-11.3-4.9-11.3-11.4
		C296.6,501.5,301.4,496.5,307.9,496.5z M307.9,516.1c4.4,0,7.7-3.4,7.7-8.1c0-4.6-3.3-8.1-7.7-8.1c-4.4,0-7.7,3.5-7.7,8.1
		C300.2,512.6,303.5,516.1,307.9,516.1z"/>
	<path d="M327.4,497h3.5l10.8,16.3V497h3.4v22h-3.5l-10.8-16.2V519h-3.5v-22H327.4z"/>
	<path d="M358.4,500.1h-5.5V497h14.5v3.1h-5.5v18.8h-3.5V500.1z"/>
	<path d="M375.2,497h10.9v3.1h-7.4v6.1h6.4v3.1h-6.4v6.5h7.7v3.1h-11.2V497z"/>
	<path d="M401.2,518.9l-8.2-22h3.8l6.2,17.8l6.3-17.8h3.8l-8.2,22H401.2z"/>
	<path d="M420.5,497h3.5v22h-3.5V497z"/>
	<path d="M433.4,497h5.2c7.3,0,11.7,4.1,11.7,11c0,7.2-4.5,11-11.7,11h-5.2V497z M438.9,515.9c4.7,0,7.7-2.7,7.7-7.9
		c0-5.1-3-7.9-7.7-7.9h-2v15.8H438.9z"/>
	<path d="M458.4,497h10.9v3.1h-7.4v6.1h6.4v3.1h-6.4v6.5h7.7v3.1h-11.2V497z"/>
	<path d="M488.4,496.5c6.6,0,11.3,5,11.3,11.4c0,6.5-4.7,11.4-11.3,11.4c-6.6,0-11.3-4.9-11.3-11.4
		C477,501.5,481.9,496.5,488.4,496.5z M488.4,516.1c4.4,0,7.7-3.4,7.7-8.1c0-4.6-3.3-8.1-7.7-8.1c-4.4,0-7.7,3.5-7.7,8.1
		C480.6,512.6,483.9,516.1,488.4,516.1z"/>
	<path d="M519.5,517.7c0-6.2,10.1-9.8,10.1-14.6c0-1.9-1.3-3.3-3.4-3.3c-2.1,0-3.2,1.4-3.6,3l-3-0.9c0.4-2,2.2-5.3,6.8-5.3
		c4.2,0,6.8,2.6,6.8,6.4c0,6.2-9,9.4-9.5,12.9h9.8v3.1h-13.9L519.5,517.7L519.5,517.7z"/>
	<path d="M548.3,519.3c-5.5,0-7.3-4-7.3-11.4c0-7.4,1.8-11.4,7.3-11.4s7.3,4,7.3,11.4C555.6,515.3,553.8,519.3,548.3,519.3z
		 M548.3,516.1c3.4,0,3.8-3.2,3.8-8.1c0-4.9-0.4-8.1-3.8-8.1c-3.4,0-3.8,3.2-3.8,8.1C544.5,512.9,544.9,516.1,548.3,516.1z"/>
	<path d="M562.9,498.4l4-1.5h2.8v22h-3.5v-18.5l-2.4,0.9L562.9,498.4z"/>
	<path d="M579.4,517.8l1.4-2.8c0.7,0.5,1.8,1,3.4,1c4.1,0,5.1-3.8,5.1-6.6c-0.7,0.9-2.1,1.9-4.4,1.9c-4,0-6.5-2.8-6.5-7.2
		c0-4.6,2.8-7.7,7.2-7.7c5.8,0,7.4,4.3,7.4,9.8c0,7.3-2.1,13-8.5,13C582,519.3,580.3,518.4,579.4,517.8z M581.9,504.1
		c0,2.4,1.3,4.1,3.7,4.1c1.7,0,3-1,3.9-2.4c0-3.2-0.4-6.1-4-6.1C583.3,499.8,581.9,501.3,581.9,504.1z"/>
</g>
<g>
	<path d="M307.9,189.9c20.8,0,36.4,13.1,36.4,39.6c0,23.2-11.9,40.5-36.4,40.5h-34.6v-80.2L307.9,189.9L307.9,189.9z M306.8,255.3
		c10.2,0,20-6.3,20-24c0-16.2-5.7-26.5-23.1-26.5H291v50.5H306.8z"/>
	<path d="M383.4,255.3h41.4v14.8h-58.5v-80.4h58.5v14.8h-41.4v18.1H420v15.6h-36.6V255.3z"/>
	<path d="M468.5,270.1l-26-80.2h18.2l17.9,56.4h0.2l18.1-56.4h18.2l-26.6,80.2H468.5z"/>
	<path d="M303.6,374.6c-22.9,0-41.4-18.5-41.4-41.4c0-23,18.5-41.5,41.4-41.5c22.8,0,41.5,18.5,41.5,41.5
		C345.1,356.1,326.4,374.6,303.6,374.6z M279.1,333.2c0,13.4,11.1,24.5,24.5,24.5s24.3-11.1,24.3-24.5s-10.9-24.6-24.3-24.6
		S279.1,319.8,279.1,333.2z"/>
	<path d="M405.4,294.5c20.1,0,27.7,12.7,27.7,25.7s-7.6,25.7-27.7,25.7h-18.5v28.7h-17.7v-80.2L405.4,294.5L405.4,294.5z
		 M400.4,332.2c8.1,0,15.5-1.8,15.5-12s-7.4-12-15.5-12h-13.7v24H400.4z"/>
	<path d="M514.6,348.9c0,14.7-11.5,25.7-33.3,25.7c-17,0-32.3-7.9-34-25.4h17.1c1.9,10.2,11.2,11.7,17.6,11.7
		c6.2,0,15.6-1.8,15.6-10c0-17.1-47.7-6.1-47.7-36c0-16.5,15.5-24.3,30-24.3c15.9,0,30.5,6.5,32,23.1h-17
		c-2.2-9.1-10.3-9.4-15.8-9.4c-5.6,0-12.1,2.4-12.1,9.1c0,6,3.8,7.3,23.9,12.1C496.8,327,514.6,330.7,514.6,348.9z"/>
	<path d="M307.9,392.6c20.8,0,36.4,13.1,36.4,39.6c0,23.2-11.9,40.5-36.4,40.5h-34.6v-80.2L307.9,392.6L307.9,392.6z M306.8,458
		c10.2,0,20-6.3,20-24c0-16.2-5.7-26.5-23.1-26.5H291V458H306.8z"/>
	<path d="M388.2,392.6H406l35.8,80.1h-17.1l-7.9-17.7h-40.5l-8.4,17.7h-16.1L388.2,392.6z M383.9,438.7h26.6l-13-31h-0.1
		L383.9,438.7z"/>
	<path d="M441,392.6h19.9l18.7,31.7l18.6-31.7h19.6L488.1,442v30.8h-17.6v-31.2L441,392.6z"/>
	<path d="M592.3,450.9c0,14.7-11.5,25.7-33.3,25.7c-17,0-32.3-7.9-34-25.4h17.1c1.9,10.2,11.2,11.7,17.6,11.7
		c6.2,0,15.6-1.8,15.6-10c0-17.1-47.7-6.1-47.7-36c0-16.5,15.5-24.3,30-24.3c15.9,0,30.5,6.5,32,23.1h-17
		c-2.2-9.1-10.3-9.4-15.8-9.4c-5.6,0-12.1,2.4-12.1,9.1c0,6,3.8,7.3,23.9,12.1C574.4,429,592.3,432.7,592.3,450.9z"/>
</g>
<path d="M141.8,422.1c0.1,0,0.2-0.1,0.2-0.1c1.2,2,2.4,4,3.7,6c0-0.6-0.3-1.2-0.5-1.7c-1-2.4-3.1-4.2-3.9-6.8
	c-0.2-0.6-0.8-1.4-1.4-1.7c-1.3-0.7-2.7-1.1-4-1.6s-2.5-1.2-3.8-1.8c-0.3-0.1-0.7-0.5-0.6-0.6c0.2-0.6,0.4-1.2,0.8-1.7
	c0.2-0.3,0.8-0.4,1-0.7c1.5-2.2,2.9-4.4,4.5-6.7c-0.7-1.7-1.5-3.6-2.4-5.4c-0.2-0.4-0.8-0.9-1.3-1c-0.9-0.2-1.8-0.2-2.8-0.3
	c-2.2-0.2-4.4-0.4-6.7-0.6c-0.3,0-0.7-0.6-0.7-0.8c0.2-1.2,0.4-2.4,0.9-3.4c1-2.1,0.9-4.5,2.1-6.6c0.1-0.1-0.1-0.5-0.3-0.7
	c-1.5-1.6-3-3.2-4.6-4.8c-0.9,0.3-1.8,0.6-2.7,0.9c-0.8,0.2-1.6,0.3-2.4,0.5c-1.4,0.2-2.8,0.3-4.1,0.7c-1.4,0.4-1.8,0.2-1.8-1.2
	c0-2.1,0-4.2,0-6.3c0-0.6,0.1-1.3,0.1-1.9c0.1-1.3-0.4-2.1-1.7-2.6c-0.3-0.1-0.6-0.4-0.9-0.6c-1-0.6-2-1.1-3-1.6
	c-0.1,0.1-0.2,0.2-0.2,0.3c0.4,0.9,0.8,1.8,1.2,2.7c0.1,0.1,0.1,0.4,0.1,0.4c-0.7,0.5-0.1,1,0.1,1.5c0.3,0.7,0.6,1.3,0.8,1.9
	c0.1,0.2-0.1,0.6-0.2,0.8c-0.4-0.5-0.6-1.1-0.9-1.2c-0.4,0-0.8,0.3-1.2,0.5c0.3,0.6,0.6,1.2,1,1.9c-0.8,1.2,0.6,1.6,1.3,2.3
	c-0.4,0.2-0.7,0.3-1,0.5c-0.2-0.5-0.5-0.9-0.7-1.4c-0.3,0.2-0.7,0.3-0.9,0.5c-0.7,0.7-1.3,0.6-1.5-0.2c-0.2-0.7-0.2-1.7,0.2-2.2
	c0.5-0.7,0.2-0.9-0.3-1.3c-0.2-0.1-0.3-0.3-0.5-0.4c0.1,0,0.2-0.1,0.3-0.1c0-0.5,0.1-1,0-1.4c-0.3-1.1-1.4-2.1-0.7-3.4
	c0,0-0.1-0.2-0.2-0.2c-1.3,0.6-2.6,1.2-4,1.8c0.4,0.3,0.6,0.5,0.8,0.7c-1.7-0.3-2.8,0.5-4.2,1.7c-0.1-0.6-0.1-1-0.2-1.4
	c-0.4-1.2-0.7-2.5-1.5-3.3c-0.5-0.5-1-0.8-1.3-1.5c-0.4-0.7-0.9-1.3-1.4-2.1c0.5,0.1,1.2,0.2,1.9,0.3c-0.1-0.8,0.3-2-1.3-2
	c0.6-0.8,0.5-1-0.4-1.3c-0.4-0.2-0.9-0.3-1.3-0.4c-1-0.3-2.1-0.8-3.1-0.7c-1.3,0.2-2.6,0.9-3.6,1.7c-1,0.8-1.4,2.5-2.5,3.2
	c-1.6,1-1,2.2-0.9,3.5c-0.5,0.1-1.2,0.3-1.5,0.1c-0.7-0.6-1.7-0.7-1.9-1.9c-0.2-0.7-0.8-1.3-1.3-1.9c-1.4-1.8-2.9-3.6-4.4-5.6
	c-0.3,0-0.7,0-1.2,0.1c-1.5,0.2-3,0.6-4.6,0.6c-0.9,0-1.1,0.4-1.4,1.1c-0.4,1.1-0.6,2.4-1.3,3.3c-1.1,1.6-1.7,3.3-2.4,5.1
	c-0.4,1-0.8,0.8-1.5,0.4c-1-0.8-2-1.5-3-2.3c-0.4,0.3-0.7,0.6-1,0.8c0-0.4,0.1-0.8,0.1-1.3c-1.1-0.8-2.2-1.8-3.4-2.5
	c-0.5-0.3-1.3-0.3-1.8-0.1c-1,0.3-1.8,0.9-2.8,1.2c-1.7,0.7-3.3,1.4-2.7,3.8v0.1c-0.2,1.9-0.5,3.8-0.7,5.6c-0.1,1-0.3,1.9-0.5,2.8
	c-0.8-0.1-1.3,0-1.8-0.2c-0.9-0.3-1.7-0.8-2.6-1.1c-0.9-0.3-1.9-0.4-2.8-0.7c-1-0.3-1.9-0.8-2.8-1.1c-0.2-0.1-0.6,0.1-0.7,0.2
	c-1.4,1.2-2.7,2.3-4,3.5c-0.3,0.3-0.7,0.8-0.6,1.1c0.3,1.5,0.7,3,1.1,4.6c0,0.2,0.2,0.4,0.1,0.6c-0.3,1.7,0.3,3.2,0.9,4.7
	c0.3,0.6,0.2,1.1-0.6,1c-0.6,0-1.3-0.1-1.9-0.1c-1.3,0-2.6,0.1-4,0.2c-0.4,0-0.8,0.4-1.1,0.2c-0.9-0.6-1.8-0.1-2.7,0
	c-0.5,0.1-0.9-0.3-1.3,0.5c-0.5,1.1-1.3,2-2,3c-0.1,0.2-0.2,0.4-0.3,0.6c-0.2,0.5-0.5,1-0.8,1.8c0.9,1.6,1.9,3.4,2.8,5.2
	c0,0.1,0.1,0.2,0.1,0.2c1.6,1.2,1.5,3.2,2.6,4.8c-1.4,0.3-2.6,0.3-3.7,0.7c-2.2,0.8-4.3,1.7-6.5,2.5c-0.2,0.1-0.6,0.3-0.6,0.5
	c-0.4,1.8-0.7,3.5-1,5.3c-0.1,0.5-0.1,1.3,0.2,1.6c0.8,0.9,1.7,1.6,2.6,2.3c1.2,1.1,2.5,2.1,3.7,3.2c0.6,0.6,1,1.4,1.4,2
	c-3,2.3-5.9,4.4-8.7,6.6c0.1,0.9,0.3,1.9,0.4,3c0.1,1,0,2,0.1,2.9c0.1,0.5,0.4,1,0.8,1.3c0.9,0.6,1.9,1,2.8,1.4c2,0.9,4,1.8,6,2.6
	c0.9,0.4,0.7,0.9,0.3,1.4c-1.8,2.5-3.6,4.9-5.3,7.4c-0.3,0.4-0.4,1.2-0.2,1.6c0.8,2,1.7,3.9,2.5,5.6c3.8,0.4,7.4,0.9,11.1,1.3
	c-0.4,1.4-0.8,2.7-1.2,4c-0.3,1-0.7,2-1,3s-0.2,2.2-0.7,3c-0.6,0.9,0,1.2,0.4,1.7c0.4,0.5,0.9,1,1.3,1.5c0.5,0.6,0.9,1.2,1.4,1.7
	c0.4,0.4,0.9,0.6,1.4,1c3.5-0.7,7.1-1.4,10.9-2.1c0,1.3-0.1,2.5-0.1,3.7c0,1.9,0.3,3.9,0.2,5.7c-0.1,1.4,0.4,2.2,1.5,2.7
	c0.6,0.3,1,0.7,1.6,1c-0.1,0.2-0.2,0.3-0.1,0.2c0.5,1,1,1.9,1.4,2.8c0.1-0.3,0.2-0.6,0.2-0.9c-0.1-0.5-0.4-0.9-0.6-1.4
	c1.1,0.3,1.8,0.9,2.8,0.3c2.1-1.2,4.3-2.2,6.5-3.3c0.1-0.1,0.2-0.1,0.3-0.2c0.7-0.5,1.3-1,2.3-1.8c0.9,2.6,1.7,4.9,2.5,7.1
	c0.4,1.2,0.8,2.5,1.3,3.7c0.1,0.3,0.5,0.5,0.8,0.6c1.2,0.3,2.3,0.6,3.5,0.7c1,0.1,2.1,0.6,2.9-0.3c0.9-1,1.7-2.1,2.6-3
	s1.8-1.8,2.7-2.7c0.6-0.6,1-1.3,1.6-2c0.4,0.6,0.8,1.2,1.3,1.9c0.5,0.7,1,1.4,1.5,2.1c0.8,1,1.9,2,2.5,3.1c0.8,1.3,1.4,2,3.2,1.9
	c1.5,0,2.9-0.6,4.3-0.5c0.3,0,0.8-0.5,1-0.9c0.7-1.3,1.2-2.7,1.9-4c0.2-0.4,0.5-0.8,0.7-1.2c0.5-1.1,1.1-2.1,1.4-3.3
	c0.2-0.8,0.4-1.2,1-1.3c2.2,2.8,5.5,4,8.1,6.3c0.4-0.1,1,0,1.5-0.3c1.5-0.6,2.9-1.2,4.3-2c0.5-0.3,1-0.9,1.1-1.5c0.2-2,0.8-4,0.6-6
	c-0.1-0.8,0.2-1.7,0.2-2.5c0.1-1.5,0.1-1.5,1.7-0.9c0.1,0,0.2,0,0.2,0c2.5,0.8,5,1.6,7.5,2.3c0.9,0.3,1.7,0.3,2.4-0.3
	c1.1-1,2.1-2.1,3.2-3.1c1-0.9,1.2-1.8,0.7-3.1c-0.4-1.4-0.6-2.8-0.9-4.2c-0.1-0.3-0.1-0.6-0.1-0.9c-0.3-1.2-0.7-2.3-1.1-3.7
	c2-0.1,3.8-0.2,5.7-0.3c2.2-1.7,4.6-2.8,7.4-3.1c0.1-0.1,0.1-0.2,0.2-0.2c0.6-0.8,1.3-1.7,1.3-2.7c0.1-0.8-0.5-1.9-1.1-2.5
	c-0.9-1-1.5-2.2-2.2-3.3c-0.5-0.8-0.9-1.7-1.3-2.6c-0.3-0.5-0.6-0.8-1.2-1.6c1.5-0.4,2.6-0.5,3.6-0.9c2.3-0.9,4.5-2,6.8-2.8
	c0.9-0.3,1.3-1.3,1.2-1.7c-0.1-1.5,0.6-2.7,0.7-4.1c0.1-1.1-0.4-1.9-1.3-2.4c-1.2-0.6-1.6-2-3-2.5c-0.8-0.3-1.3-1.2-2-1.8
	c0,0.1-0.1,0.3-0.1,0.4c-0.4,0.2-0.7,0.4-1.1,0.5l-0.3-0.3c0.4-0.4,0.7-0.7,1.2-1.1c-0.4-0.5-0.9-1.1-1.4-1.6
	c2.9-2.3,5.8-4.6,8.8-6.9C142.1,424.5,142,423.3,141.8,422.1z M125.9,432.6c0.1,1.2-0.2,2.5-0.4,3.7c-0.4,2.1-0.7,4.3-1.2,6.4
	c-0.2,1-0.7,1.9-1,2.8c-0.1,0.2,0,0.4,0,0.6c0.2-0.1,0.5-0.1,0.7-0.2c0.1-0.1,0-0.4,0-0.7c0.2,0.2,0.5,0.4,0.6,0.6
	c0.1,0.1,0.1,0.4,0.1,0.6c0,0.1-0.2,0.1-0.3,0.1c-0.6,0.2-1.2,0.3-1.7,0.6c-6.3,16.7-18.1,27.4-35.1,32.4c0-0.2-0.1-0.4-0.1-0.7
	c-2,1.7-4.3,1.8-6.7,2.1c-1.2,0.2-2.4,0.2-3.6,0.4c-0.9,0.1-1.5-0.2-1.9-1.1c-0.4-1.2-0.9-2.3-1.4-3.5c-0.1-0.3-0.3-0.5-0.5-0.7
	c-0.1,0.1-0.2,0.1-0.4,0.2c0.3,0.6,0.6,1.3,0.9,1.9c0.2,0.4,0.5,0.8,0.6,1.2c0.2,0.5,0.2,1.1,0.3,1.6c-0.5,0-1,0-1.5-0.1
	c-1.3,0-2.5-0.1-3.8-0.1c-0.6,0-1.2-0.2-1.8-0.3c0-0.1,0-0.3,0.1-0.5c-0.1,0-0.2-0.1-0.3-0.1c-1.6,0.8-2.9-0.2-4.3-0.5
	c-0.6-0.2-1.2-0.3-2.1-0.5c-0.2-0.6-2.2-1.4-3.3-1.1c-0.6,0.2-1,0.2-1.5-0.4c-0.4-0.5-1.2-0.6-1.9-0.8c-2.8-0.9-5.2-2.3-7.6-4.1
	c-1.4-1.1-3.2-1.7-4.4-3C41,467.9,39,467,38,465c-0.3-0.6-1-0.9-1.5-1.3c-0.9-0.7-1.2-2-2.3-2.6c-0.8-0.5-1.1-1.6-1.6-2.5
	c-0.5-0.8-1.2-1.5-1.7-2.3c-0.2-0.3-0.4-0.6-0.5-0.9c-0.5-1.1-1-2.3-1.5-3.4c-0.4-0.7-1-1.3-1.3-2.1c-0.3-0.7-0.3-1.5-0.5-2.2
	c-0.3-0.9-0.9-1.8-1.2-2.7c-0.3-0.7-0.4-1.5-0.6-2.3c-0.4-1.5-1-3-1.2-4.6c-0.2-1.7-0.1-3.5-0.3-5.2c-0.1-1.1-0.4-2.1-0.4-3.2
	c0-1.8,0-3.6,0.2-5.3c0.2-1.9,0.5-3.8,0.9-5.7c0.2-1.1,0.4-2.3,0.7-3.4c0.4-1.5,1.1-2.9,1.6-4.3c0.3-0.9,0.5-1.9,0.8-2.8
	c0.1-0.4,0.5-0.8,0.7-1.2c1-1.9,1.9-3.9,3.1-5.7c1-1.6,2.3-3,3.4-4.5c0.7-1,1.3-2,2.1-3c0.8-0.9,1.8-1.7,2.6-2.6
	c0.5-0.5,1.5-0.7,1.4-1.8c0,0,0.3,0,0.4-0.1c1.5-1.1,3-2.3,4.5-3.5c0.1-0.1,0.2-0.2,0.3-0.2c1.6-0.9,3.1-1.8,4.8-2.6
	c2.5-1.2,4.9-2.6,7.5-3.4c1.8-0.5,3.6-1.6,5.7-1.5c0.9,0.1,1.9-0.5,2.9-0.8c0.2-0.1,0.5-0.1,0.8-0.2c1.1-0.1,2.1-0.3,3.2-0.4
	c0.3,0,0.7,0.1,1,0.1c0.5,0,1.2,0.2,1.6-0.1c1.3-0.9,2.5,0.2,3.8,0.1c0.9,0,1.8,0,2.8,0.1c0.6,0,1.3,0.1,1.9,0.2
	c1.4,0.3,2.7,0.6,4.1,0.9c0.4,0.1,0.9,0.2,1.3,0.3c1.1,0.3,2.3,0.6,3.4,1c1.6,0.6,3.2,1.1,4.7,2c0.3,0.2,1,0,1.4,0
	c0-0.1,0-0.3,0.1-0.4c-0.5-0.3-1-0.5-1.6-0.8c0.1-0.1,0.1-0.1,0.2-0.2c-0.4-0.6-0.7-1.3-1.3-1.6c-0.4-0.2-1.1,0.1-1.9,0.2
	c-0.2-0.3,0.2-0.9,1.6-1.7c-0.2-0.6-0.8-1.4-0.6-1.8c0.6-1.2-0.2-2.1-0.5-3.1c0.2-0.2,0.5-0.4,0.8-0.8c0.3,1.4,0.6,2.7,0.9,4
	c0.2,0.9,0.8,1.8,1.1,2.6c0.4,1.2,1.4,2.1,1.7,3.4c0.1,0.2-0.1,0.5-0.1,0.7c1.4,0.8,2.8,1.7,4.2,2.5c0.3,0.2,0.6,0.4,1,0.5
	c0-0.3,0-0.7,0-1s0.1-0.5,0.3-1.1c0.2,0.6,0.4,0.9,0.4,1.2c0,1.5,0.3,1.9,1.8,2.4c0.4,0.1,0.6,0.6,1,0.8c1.1,0.6,1.9,1.5,2.9,2.6
	c0-0.4,0-0.9,0-1.3c0.1,0,0.2-0.1,0.3-0.1c0.1,0.4,0.2,0.8,0.3,1.2c0.1,0.4,0.2,0.9,0.3,1.4c0.7-0.6,1.3-1.1,2-1.8
	c0,0.8,0,1.2,0,1.8c-0.3,0-0.6,0.1-1,0.1c0.2,0.5,0.3,1,0.6,1.4c1.2,1.3,2.5,2.6,3.7,4c0.2,0.2,0.4,0.4,0.4,0.7
	c0.3,0.8,0.8,1.3,1.7,1.1c-0.6,0.8-0.2,1.9,0.6,2.2c0.3,0.1,0.6,0.4,0.7,0.7c0.8,1.7,1.5,3.5,2.3,5.2c0.4,1,0.8,2,1.3,3
	c0.2,0.5,0.6,0.8,1,1.2c0.1-0.1,0.3-0.1,0.4-0.2c-0.1-0.5-0.2-1-0.2-1.4c-0.1-0.1-0.1-0.2-0.2-0.3c0-0.1,0.1-0.1,0.1-0.2
	c0,0.2,0.1,0.4,0.1,0.5c0.2,0.4,0.4,0.8,0.6,1.1c0.1-0.4,0.2-0.9,0.4-1.3c0,0.5,0,0.9,0,1.4s0,0.9,0.1,1.4c-0.3,0-0.7,0-1.1,0
	c0.4,1.6,0.9,3.3,1.3,5c0.3,1.2,0.4,2.5,0.7,3.7c0.2,0.9,0.4,1.7,0.5,2.6c0.1,0.8,0.1,1.5,0.1,2.3c0,0.6-0.1,1.2,0,1.7
	c0.1,0.3,0.5,0.5,1,0.6c0.1,0.5,0.1,0.9,0.2,1.4C125.8,430.3,125.7,430.9,125.9,432.6z"/>
<path d="M218.9,513.2c0.1-0.3-0.2-1.1-0.5-1.3c-1.3-0.8-2.6-1.4-4-2.1c-0.5-0.2-1-0.3-1.4-0.6c-0.3-0.2-0.6-0.5-0.5-0.8
	c0-0.5,0.2-1,0.4-1.5c0.4-0.8,0.3-1.4,0.1-2.3c-0.3-1.6,1.2-3,2.8-3.3c0.9-0.2,2.1,0.1,2.7-1c0.1-0.1,0.5,0,0.7,0
	c1.6-1.8,1.1-4,1.1-6.3c-0.6,0.1-1.2,0.2-1.8,0.3c-0.7-0.6-1.4-1.2-2.2-1.9c0-0.1,0-0.2,0-0.4c0.4,0,1.1-0.1,1.2,0.1
	c0.5,0.9,1.1,0.6,1.7,0.3c0.1,0.3,0.2,0.6,0.3,0.9l0.4-0.1c0-0.3,0-0.6-0.1-0.9c-0.6-1.3-1.1-2.6-2.2-3.4c-0.5-0.4-1.4-0.3-2.1-0.4
	c-1-0.1-2.1-0.1-3.1-0.1c-0.4,0-0.7,0.2-1.2,0.3c-0.3-0.8-0.5-1.7-0.8-2.5c-0.4-0.9-0.7-1.9-1.2-2.7c-0.7-1.1-0.2-1.7,0.6-2.4
	c1-0.9,2.1-1.6,3-2.6c0.4-0.5,0.4-1.4,0.5-2.1c0-0.1-0.2-0.2-0.2-0.3c0.1-1.5-0.6-2.8-1.4-4c-1-1.5-2.3-2.8-4-3.6
	c-1-0.5-2,0-2.9,0.4c-1.1,0.4-2.1,1.2-3.3,1.6c-1,0.4-1.5-0.7-2.1-1.2c-1.2-1-2.2-2-3.5-3.3c0.6-1.4,1.2-3.1,1.9-4.8
	c0.5-1.3,0.2-2.1-0.9-2.9c-0.4-0.3-0.6-1-1-1.2c-1.6-0.8-3.2-1.6-4.9-2.3c-0.8-0.3-1.8-0.6-2.6-0.6c-0.6,0.1-1.1,0.8-1.6,1.3
	c-0.8,0.8-1.5,1.7-2.2,2.6c-0.2,0.3-0.5,0.6-0.7,0.9c-1.7-0.5-3.3-0.9-5-1.4c-0.1,0-0.1-0.1-0.2-0.1c-1.5-0.4-1.9-1.1-1.6-2.7
	c0-0.2,0-0.4,0-0.5c-0.1-0.8-0.1-1.7-0.2-2.5c-0.1-1-0.8-1.5-1.6-1.9c-2.3-1.2-4.8-1.4-7.3-1c-0.7,0.1-1.4,0.4-2.2,0.6
	c-0.2,0.1-0.4,0.3-0.5,0.4c-0.4,1.2-0.6,2.5-1,3.7c-0.3,0.8-0.6,1.6-1,2.4c-2,0.4-4.1,0.8-6.2,1c-0.4,0-1-0.7-1.3-1.2
	c-0.6-1-1.1-2.1-1.7-3.1c-0.9-1.4-2.3-1.4-3.7-1.4c-1,0-2,0.1-2.9,0.4s-1.8,1-2.6,1.6c-0.4,0.2-0.6,0.6-1,0.8
	c-1.1,0.6-1.5,1.4-1.2,2.6c0.3,1.6,0.6,3.2,0.8,4.9c0,0.3-0.2,0.6-0.5,0.8c-1.5,1.1-3.1,2.2-5,3.5c-0.9-0.6-2.3-1.2-3.3-2.3
	c-1.5-1.5-3.9-1.6-5.2,0.1c-0.1,0.1-0.2,0.3-0.3,0.3c-1.3,0.7-1.3,0.7-1.8,1.8c-0.1,0-0.2,0-0.3,0c-1.1,1.7-1.8,3.6-2,5.6
	c0.2,0.2,0.4,0.4,0.6,0.7c1,1.4,2.1,2.7,3.1,3.9c-1.2,1.8-2.5,3.6-3.7,5.4c-0.8,0-1.8,0.2-2.8,0.1c-0.7,0-1.4-0.3-2.1-0.5
	c-0.8-0.3-1.4-0.4-2.2,0.5c-1.2,1.3-2,2.8-2.6,4.3s-1,3.1-0.5,4.7c0.2,0.8,0.9,1.7,1.7,2.2c1,0.6,2.2,1,3.3,1.2
	c1.1,0.3,1.1,1,1.1,1.8c-0.1,1.5-0.6,3.1-0.5,4.6c0.1,1.4-0.7,1.4-1.6,1.8c0.5,0.3,1,0.5,1.6,0.8c-0.6,0.2-1,0.4-1.4,0.5
	c-0.3,0-0.7-0.1-0.8-0.2c-0.3-0.2-0.4-0.9-0.5-0.9c-0.9,0.2-1.9,0.4-2.6,0.9c-1.5,1.1-1.7,2.8-1.7,4.5c0,1.1,0.3,2.3,0.6,3.4
	c0.3,1,0.7,2,1.2,2.9c0.2,0.3,0.5,0.7,0.9,0.8c0.9,0.3,1.8,0.8,2.7,0c0.1-0.1,0.5,0.2,0.7,0.2c0.7,0.1,1.4,0.3,2.1,0.2
	c1.1-0.2,1.3,0.6,1.6,1.3c0.6,1.5,1.1,3.1,1.6,4.6c0.1,0.2,0.1,0.7-0.1,0.8c-1.2,1.2-2.7,2.2-3.6,3.6c-0.5,0.8-0.4,2.2-0.2,3.3
	c0.2,1,0.8,2,1.3,3c0.2,0.4,0.7,0.7,1.1,1.1c1.2,1,2.3,2.1,3.9,2.4c0.4,0.1,0.8-0.1,1.2-0.2c1.3-0.6,2.5-1.1,3.7-1.9
	c1.2-0.7,1.5,0.5,2.1,0.8c1.2,0.8,2.3,1.8,3.3,2.8c0.3,0.3,0.4,0.9,0.3,1.3c-0.1,0.5-0.3,0.9-0.5,1.4c0.1,0.1,0.2,0.2,0.2,0.3
	c0.3-0.2,0.7-0.5,1.1-0.8c-0.2,0.5-0.4,0.9-0.6,1.4c-0.3-0.1-0.6-0.1-1-0.2c-0.4,1-1.3,2.1-1.1,3.1c0.2,1.7,1.5,2.9,3,3.9
	c0.2-0.4,0.3-0.7,0.6-1.3c0.4,0.5,0.7,0.9,1.1,1.2c-0.1,0.1-0.2,0.2-0.2,0.3c0.3,0,0.7,0,1.1,0c-0.2,0.3-0.4,0.6-0.6,1
	c1.6,0.3,3.2,0.7,4.7,0.9c0.2,0,0.7-0.1,0.8-0.4c0.5-0.7,0.8-1.6,1.4-2.1c0.8-0.6,1.4-1.3,1.8-2.2c0.1-0.2,0.7-0.3,1.1-0.2
	c1.6,0.4,3.2,1,4.8,1.5c1,0.3,1.5,1,1.4,2c0,1,0,2,0.1,3.1c0,1.2,0.7,2,1.8,2.5c1.9,0.8,3.8,1.3,5.9,1.5c0.1,0,0.2,0.1,0.2,0.1
	c0.8-1,2-0.2,3-0.8c0.9-0.6,1.8-2.2,1.7-3.3c0-0.3,0.1-0.6,0.1-0.9c0.3-0.9,0.6-1.9,0.8-2.7c2.2-0.3,4.4-0.6,6.9-0.9
	c0.5,0.9,1.3,2.2,2,3.4c0.4,0.6,0.7,1.4,1.2,1.8c0.5,0.3,1.3,0.2,1.9,0.4c1.5,0.3,3-0.3,4.4-0.6c0.8-0.2,1.5-0.8,2.2-1.3
	c0.6-0.5,1.1-1,1.7-1.6c0.8-0.8,0.8-1.9,0.3-2.9c-0.3-0.7-0.3-1.6-0.5-2.5c-0.1-0.6-0.3-1.3-0.4-1.9c1.9-1.3,3.9-2.6,5.9-3.9
	c2,0.9,3.2,3,5.5,3.3c0.9,0.1,2-0.4,2.8-0.9c1.2-0.9,2.4-1.9,3.2-3.1c0.8-1.2,1.3-2.7,1.8-4.1c0.1-0.2-0.2-0.6-0.4-0.8
	c-1.1-1.3-2.3-2.6-3.5-3.9c-0.7-0.8,0.3-1.2,0.5-1.8c0.1-0.2,0.4-0.3,0.5-0.6c0.7-1.3,1.3-2.6,2-3.9c1.3,0.1,2.7,0.2,4.2,0.3
	c-0.3,0.4-0.4,0.6-0.5,0.8c1.5-0.4,3-0.7,4.3-1.1c0.2-0.5,0.4-0.9,0.6-1.3c0.1-0.2,0.3-0.5,0.4-0.7c0.4-1,0.9-2.1,1.2-3.1
	c0.1-0.3,0-0.7,0.1-1c0.1-0.4,0.3-0.8,0.5-1.2l0,0C219,514.5,218.6,514,218.9,513.2z M194.1,504.6c-0.1,1.3,0.1,2.8-0.3,4
	c-1.3,3.5-1.9,7.3-4.7,10.2c-1.1,1.2-1.8,2.8-2.8,4.2c-0.1,0.1-0.3,0.2-0.4,0.3c-0.4,0.2-0.8,0.4-1.1,0.6c-1.6,1.1-3.1,2.2-4.7,3.3
	c-0.6,0.5-1.3,1-2,1.3c-1.7,0.6-3.5,0.9-5.2,1.6c-2.2,0.9-4.6,0.8-6.9,1c-0.9,0.1-1.7-0.1-2.6-0.2c-1.5-0.2-3-0.1-4.4-0.5
	c-2-0.7-4-1.2-5.9-2.4c-1.3-0.8-2.5-1.7-3.7-2.7c-0.6-0.5-1.2-1.1-1.9-1.5c-1.4-0.8-2.2-2.1-3.2-3.3c-0.7-0.9-1.4-1.8-2-2.8
	c-0.8-1.3-1.5-2.5-2.1-3.9c-0.5-1-0.8-2.1-1.2-3.2c-0.1,0-0.2,0.1-0.3,0.1c0,0.5,0,0.9,0.1,1.5c-0.5-0.2-1-0.4-1.6-0.5
	c1-0.9,1.7-3.4,1.3-4.7c-0.2-0.6-0.7-1.2-0.7-1.8c0-1.2,0.2-2.4,0.4-3.6c0.1-0.8-0.4-1.4-1-1.2c-1.3,0.4-1.1-0.4-0.9-1.2
	c-0.9-0.1-1.7-0.2-2.5-0.3c-0.7,1.2-1,1.3-2,0.6c0.3-0.5,0.7-0.9,0.9-1.3c0.5,0,1,0.2,1.2,0c0.8-0.7,1.5-0.2,2.2,0
	c0.4,0.1,0.8,0.3,1.1,0.4c0.6-1.1,1.3-2.1,1.7-3.1c0.7-1.7,1.2-3.4,1.7-5.1c0.1-0.4,0.2-0.8,0.4-1.1c0.8-1.1,1.7-2.1,2.3-3.3
	c0.7-1.3,1.7-2.3,2.8-3.3s2.2-2.1,3.4-3c0.8-0.6,1.9-0.9,2.6-1.6c1.7-1.8,4-2.1,6.1-2.9c1.7-0.6,3.6-0.7,5.5-0.9
	c0.8-0.1,1.6-0.1,2.4-0.1c0.5,0,1.1,0,1.6,0.1c1.1,0.2,2.1,0.5,3.2,0.8c0.8,0.2,1.6,0.4,2.3,0.3c1.6-0.3,2.8,0.5,4,1.1
	c1.5,0.7,2.7,2,4.2,2.6c1.6,0.7,2.6,2,3.9,3c0.9,0.8,1.8,1.7,2.5,2.7c0.9,1.3,1.8,2.6,2.5,4.1s1.3,3,1.9,4.5
	c0.4,0.9,0.9,1.7,1.1,2.6c0.4,2.3,0.6,4.7,0.8,7C194.4,503.5,194.2,504.1,194.1,504.6z"/>
</svg>
